<svg width="9" height="10" viewBox="0 0 9 10" fill="none" xmlns="http://www.w3.org/2000/svg">
<path d="M4.44 9.552C4.216 9.552 4.036 9.46 3.9 9.276C3.764 9.092 3.696 8.864 3.696 8.592C3.696 8.288 3.804 7.832 4.02 7.224C4.236 6.6 4.344 5.984 4.344 5.376C4.08 5.536 3.848 5.7 3.648 5.868C3.448 6.036 3.272 6.204 3.12 6.372C2.92 6.596 2.72 6.812 2.52 7.02C2.32 7.22 2.12 7.384 1.92 7.512C1.72 7.64 1.516 7.704 1.308 7.704C1.116 7.704 0.952 7.64 0.816 7.512C0.68 7.376 0.612 7.22 0.612 7.044C0.612 6.844 0.696 6.656 0.864 6.48C1.032 6.296 1.292 6.156 1.644 6.06C1.82 6.012 2.004 5.964 2.196 5.916C2.396 5.86 2.608 5.812 2.832 5.772C3.264 5.684 3.736 5.496 4.248 5.208C3.736 4.92 3.248 4.728 2.784 4.632C2.336 4.536 1.94 4.44 1.596 4.344C1.26 4.24 1.012 4.1 0.852 3.924C0.692 3.74 0.612 3.548 0.612 3.348C0.612 3.164 0.676 3.012 0.804 2.892C0.94 2.772 1.112 2.712 1.32 2.712C1.536 2.712 1.756 2.792 1.98 2.952C2.204 3.104 2.424 3.292 2.64 3.516C2.856 3.74 3.052 3.952 3.228 4.152C3.5 4.464 3.872 4.76 4.344 5.04V4.884C4.344 4.644 4.332 4.428 4.308 4.236C4.292 4.036 4.26 3.864 4.212 3.72C4.148 3.528 4.076 3.312 3.996 3.072C3.924 2.832 3.86 2.6 3.804 2.376C3.748 2.144 3.72 1.96 3.72 1.824C3.72 1.544 3.788 1.316 3.924 1.14C4.068 0.956 4.248 0.864 4.464 0.864C4.672 0.864 4.848 0.952 4.992 1.128C5.136 1.304 5.208 1.536 5.208 1.824C5.208 2.112 5.1 2.576 4.884 3.216C4.668 3.848 4.56 4.456 4.56 5.04C4.728 4.928 4.86 4.844 4.956 4.788C5.052 4.724 5.132 4.668 5.196 4.62C5.26 4.564 5.332 4.5 5.412 4.428C5.492 4.348 5.604 4.236 5.748 4.092C6.308 3.476 6.7 3.092 6.924 2.94C7.148 2.788 7.38 2.712 7.62 2.712C7.812 2.712 7.972 2.772 8.1 2.892C8.228 3.012 8.292 3.164 8.292 3.348C8.292 3.548 8.212 3.736 8.052 3.912C7.9 4.08 7.648 4.22 7.296 4.332C7.128 4.388 6.944 4.44 6.744 4.488C6.552 4.536 6.344 4.584 6.12 4.632C5.68 4.728 5.192 4.92 4.656 5.208C4.912 5.352 5.156 5.472 5.388 5.568C5.628 5.656 5.86 5.724 6.084 5.772C6.524 5.868 6.916 5.968 7.26 6.072C7.612 6.168 7.872 6.304 8.04 6.48C8.208 6.656 8.292 6.844 8.292 7.044C8.292 7.22 8.224 7.376 8.088 7.512C7.96 7.64 7.792 7.704 7.584 7.704C7.408 7.704 7.224 7.644 7.032 7.524C6.84 7.404 6.652 7.26 6.468 7.092C6.284 6.916 6.116 6.744 5.964 6.576C5.82 6.408 5.704 6.276 5.616 6.18C5.44 5.98 5.088 5.712 4.56 5.376V5.532C4.56 6.036 4.664 6.608 4.872 7.248C5.08 7.888 5.184 8.336 5.184 8.592C5.184 8.872 5.112 9.1 4.968 9.276C4.824 9.46 4.648 9.552 4.44 9.552Z" fill="#F25413"/>
</svg>
