<?xml version="1.0" encoding="utf-8"?><svg xmlns="http://www.w3.org/2000/svg" xmlns:xlink="http://www.w3.org/1999/xlink"><symbol viewBox="0 0 72 72" id="arrow" xmlns="http://www.w3.org/2000/svg">
    <circle cx="36" cy="36" r="35.5"/>
    <path d="M36 20V52M36 52L48 40M36 52L24 40" stroke-width="1.5" stroke-linecap="round" stroke-linejoin="round"/>
</symbol><symbol viewBox="0 0 62 62" id="arrow-down" xmlns="http://www.w3.org/2000/svg">
    <path d="M1 1L61 61M61 61V16M61 61H16" stroke-width="2" stroke-linecap="round" stroke-linejoin="round"/>
</symbol><symbol viewBox="0 0 23 23" id="arrow-right-circle" xmlns="http://www.w3.org/2000/svg">
    <circle cx="11.5" cy="11.5" r="11"/>
    <path d="M6.66797 11.3331V12.6664H14.668L11.0013 16.3331L11.948 17.2797L17.228 11.9997L11.948 6.71973L11.0013 7.66639L14.668 11.3331H6.66797Z"/>
</symbol><symbol viewBox="0 0 9 10" id="snowflake" xmlns="http://www.w3.org/2000/svg">
    <path d="M4.44 9.552C4.216 9.552 4.036 9.46 3.9 9.276C3.764 9.092 3.696 8.864 3.696 8.592C3.696 8.288 3.804 7.832 4.02 7.224C4.236 6.6 4.344 5.984 4.344 5.376C4.08 5.536 3.848 5.7 3.648 5.868C3.448 6.036 3.272 6.204 3.12 6.372C2.92 6.596 2.72 6.812 2.52 7.02C2.32 7.22 2.12 7.384 1.92 7.512C1.72 7.64 1.516 7.704 1.308 7.704C1.116 7.704 0.952 7.64 0.816 7.512C0.68 7.376 0.612 7.22 0.612 7.044C0.612 6.844 0.696 6.656 0.864 6.48C1.032 6.296 1.292 6.156 1.644 6.06C1.82 6.012 2.004 5.964 2.196 5.916C2.396 5.86 2.608 5.812 2.832 5.772C3.264 5.684 3.736 5.496 4.248 5.208C3.736 4.92 3.248 4.728 2.784 4.632C2.336 4.536 1.94 4.44 1.596 4.344C1.26 4.24 1.012 4.1 0.852 3.924C0.692 3.74 0.612 3.548 0.612 3.348C0.612 3.164 0.676 3.012 0.804 2.892C0.94 2.772 1.112 2.712 1.32 2.712C1.536 2.712 1.756 2.792 1.98 2.952C2.204 3.104 2.424 3.292 2.64 3.516C2.856 3.74 3.052 3.952 3.228 4.152C3.5 4.464 3.872 4.76 4.344 5.04V4.884C4.344 4.644 4.332 4.428 4.308 4.236C4.292 4.036 4.26 3.864 4.212 3.72C4.148 3.528 4.076 3.312 3.996 3.072C3.924 2.832 3.86 2.6 3.804 2.376C3.748 2.144 3.72 1.96 3.72 1.824C3.72 1.544 3.788 1.316 3.924 1.14C4.068 0.956 4.248 0.864 4.464 0.864C4.672 0.864 4.848 0.952 4.992 1.128C5.136 1.304 5.208 1.536 5.208 1.824C5.208 2.112 5.1 2.576 4.884 3.216C4.668 3.848 4.56 4.456 4.56 5.04C4.728 4.928 4.86 4.844 4.956 4.788C5.052 4.724 5.132 4.668 5.196 4.62C5.26 4.564 5.332 4.5 5.412 4.428C5.492 4.348 5.604 4.236 5.748 4.092C6.308 3.476 6.7 3.092 6.924 2.94C7.148 2.788 7.38 2.712 7.62 2.712C7.812 2.712 7.972 2.772 8.1 2.892C8.228 3.012 8.292 3.164 8.292 3.348C8.292 3.548 8.212 3.736 8.052 3.912C7.9 4.08 7.648 4.22 7.296 4.332C7.128 4.388 6.944 4.44 6.744 4.488C6.552 4.536 6.344 4.584 6.12 4.632C5.68 4.728 5.192 4.92 4.656 5.208C4.912 5.352 5.156 5.472 5.388 5.568C5.628 5.656 5.86 5.724 6.084 5.772C6.524 5.868 6.916 5.968 7.26 6.072C7.612 6.168 7.872 6.304 8.04 6.48C8.208 6.656 8.292 6.844 8.292 7.044C8.292 7.22 8.224 7.376 8.088 7.512C7.96 7.64 7.792 7.704 7.584 7.704C7.408 7.704 7.224 7.644 7.032 7.524C6.84 7.404 6.652 7.26 6.468 7.092C6.284 6.916 6.116 6.744 5.964 6.576C5.82 6.408 5.704 6.276 5.616 6.18C5.44 5.98 5.088 5.712 4.56 5.376V5.532C4.56 6.036 4.664 6.608 4.872 7.248C5.08 7.888 5.184 8.336 5.184 8.592C5.184 8.872 5.112 9.1 4.968 9.276C4.824 9.46 4.648 9.552 4.44 9.552Z"/>
</symbol><symbol style="position:absolute;width:20px;height:20px;overflow:hidden" viewBox="0 0 100 100" id="sprite" xmlns="http://www.w3.org/2000/svg">
    <defs>
        <symbol id="eicon-snowflake" viewBox="0 0 32 32">
            <path style="fill:var(--color1, #f25413)" d="M15.808 30.566c-0.717 0-1.293-0.294-1.728-0.883s-0.653-1.318-0.653-2.189c0-0.973 0.346-2.432 1.037-4.378 0.691-1.997 1.037-3.968 1.037-5.914-0.845 0.512-1.587 1.037-2.227 1.574s-1.203 1.075-1.69 1.613c-0.64 0.717-1.28 1.408-1.92 2.074-0.64 0.64-1.28 1.165-1.92 1.574s-1.293 0.614-1.958 0.614c-0.614 0-1.139-0.205-1.574-0.614-0.435-0.435-0.653-0.934-0.653-1.498 0-0.64 0.269-1.242 0.806-1.805 0.538-0.589 1.37-1.037 2.496-1.344 0.563-0.154 1.152-0.307 1.766-0.461 0.64-0.179 1.318-0.333 2.035-0.461 1.382-0.282 2.893-0.883 4.531-1.805-1.638-0.922-3.2-1.536-4.685-1.843-1.434-0.307-2.701-0.614-3.802-0.922-1.075-0.333-1.869-0.781-2.381-1.344-0.512-0.589-0.768-1.203-0.768-1.843 0-0.589 0.205-1.075 0.614-1.459 0.435-0.384 0.986-0.576 1.651-0.576 0.691 0 1.395 0.256 2.112 0.768 0.717 0.486 1.421 1.088 2.112 1.805s1.318 1.395 1.882 2.035c0.87 0.998 2.061 1.946 3.571 2.842v-0.499c0-0.768-0.038-1.459-0.115-2.074-0.051-0.64-0.154-1.19-0.307-1.651-0.205-0.614-0.435-1.306-0.691-2.074-0.23-0.768-0.435-1.51-0.614-2.227-0.179-0.742-0.269-1.331-0.269-1.766 0-0.896 0.218-1.626 0.653-2.189 0.461-0.589 1.037-0.883 1.728-0.883 0.666 0 1.229 0.282 1.69 0.845s0.691 1.306 0.691 2.227c0 0.922-0.346 2.406-1.037 4.454-0.691 2.022-1.037 3.968-1.037 5.837 0.538-0.358 0.96-0.627 1.267-0.806 0.307-0.205 0.563-0.384 0.768-0.538 0.205-0.179 0.435-0.384 0.691-0.614 0.256-0.256 0.614-0.614 1.075-1.075 1.792-1.971 3.046-3.2 3.763-3.686s1.459-0.73 2.227-0.73c0.614 0 1.126 0.192 1.536 0.576s0.614 0.87 0.614 1.459c0 0.64-0.256 1.242-0.768 1.805-0.486 0.538-1.293 0.986-2.419 1.344-0.538 0.179-1.126 0.346-1.766 0.499-0.614 0.154-1.28 0.307-1.997 0.461-1.408 0.307-2.97 0.922-4.685 1.843 0.819 0.461 1.6 0.845 2.342 1.152 0.768 0.282 1.51 0.499 2.227 0.653 1.408 0.307 2.662 0.627 3.763 0.96 1.126 0.307 1.958 0.742 2.496 1.306s0.806 1.165 0.806 1.805c0 0.563-0.218 1.062-0.653 1.498-0.41 0.41-0.947 0.614-1.613 0.614-0.563 0-1.152-0.192-1.766-0.576s-1.216-0.845-1.805-1.382c-0.589-0.563-1.126-1.114-1.613-1.651-0.461-0.538-0.832-0.96-1.114-1.267-0.563-0.64-1.69-1.498-3.379-2.573v0.499c0 1.613 0.333 3.443 0.998 5.491s0.998 3.482 0.998 4.301c0 0.896-0.23 1.626-0.691 2.189-0.461 0.589-1.024 0.883-1.69 0.883z"/>
        </symbol>
        <symbol id="eicon-arrow-right-down" viewBox="0 0 32 32">
            <path style="stroke:var(--color2, #1f4dd6)" stroke-linejoin="round" stroke-linecap="round" stroke-miterlimit="4" stroke-width="0.5333" d="M8 8l16 16M24 24v-12M24 24h-12"/>
        </symbol>
        <symbol id="eicon-arrow-down" viewBox="0 0 32 32">
            <path style="stroke:var(--color3, #fff)" stroke-linejoin="miter" stroke-linecap="butt" stroke-miterlimit="4" stroke-width="0.4444" d="M31.778 16c0 8.714-7.064 15.778-15.778 15.778s-15.778-7.064-15.778-15.778c0-8.714 7.064-15.778 15.778-15.778s15.778 7.064 15.778 15.778z"/>
            <path style="stroke:var(--color3, #fff)" stroke-linejoin="round" stroke-linecap="round" stroke-miterlimit="4" stroke-width="0.6667" d="M16 8.889v14.222M16 23.111l5.333-5.333M16 23.111l-5.333-5.333"/>
        </symbol>
        <symbol id="eicon-arrow-right" viewBox="0 0 32 32">
            <path style="stroke:var(--color2, #1f4dd6)" stroke-linejoin="miter" stroke-linecap="butt" stroke-miterlimit="4" stroke-width="1.3913" d="M31.304 16c0 8.452-6.852 15.304-15.304 15.304s-15.304-6.852-15.304-15.304c0-8.452 6.852-15.304 15.304-15.304s15.304 6.852 15.304 15.304z"/>
            <path style="fill:var(--color2, #1f4dd6)" d="M9.277 15.768v1.855h11.13l-5.101 5.102 1.317 1.317 7.346-7.346-7.346-7.346-1.317 1.317 5.101 5.101h-11.13z"/>
        </symbol>
    </defs>
</symbol></svg>