<?xml version="1.0" encoding="utf-8"?><svg viewBox="0 0 100 100" xmlns="http://www.w3.org/2000/svg" xmlns:xlink="http://www.w3.org/1999/xlink"><style>:root>svg{display:none}:root>svg:target{display:block}</style><svg fill="none" viewBox="0 0 72 72" id="arrow" xmlns="http://www.w3.org/2000/svg"><circle cx="36" cy="36" r="35.5" stroke="#fff"/><path d="M36 20v32m0 0 12-12M36 52 24 40" stroke="#fff" stroke-width="1.5" stroke-linecap="round" stroke-linejoin="round"/></svg><svg fill="none" viewBox="0 0 62 62" id="arrow-down" xmlns="http://www.w3.org/2000/svg"><path d="m1 1 60 60m0 0V16m0 45H16" stroke="#1F4DD6" stroke-width="2" stroke-linecap="round" stroke-linejoin="round"/></svg><svg fill="none" viewBox="0 0 23 23" id="arrow-right-circle" xmlns="http://www.w3.org/2000/svg"><circle cx="11.5" cy="11.5" r="11" stroke="#1F4DD6"/><path d="M6.668 11.333v1.333h8l-3.667 3.667.947.947 5.28-5.28-5.28-5.28-.947.946 3.667 3.667h-8Z" fill="#1F4DD6"/></svg><svg fill="none" viewBox="0 0 9 10" id="snowflake" xmlns="http://www.w3.org/2000/svg"><path d="M4.44 9.552a.64.64 0 0 1-.54-.276 1.12 1.12 0 0 1-.204-.684c0-.304.108-.76.324-1.368.216-.624.324-1.24.324-1.848a5.358 5.358 0 0 0-1.224.996c-.2.224-.4.44-.6.648-.2.2-.4.364-.6.492-.2.128-.404.192-.612.192a.692.692 0 0 1-.492-.192.644.644 0 0 1-.204-.468c0-.2.084-.388.252-.564.168-.184.428-.324.78-.42.176-.048.36-.096.552-.144.2-.056.412-.104.636-.144.432-.088.904-.276 1.416-.564-.512-.288-1-.48-1.464-.576a20.255 20.255 0 0 1-1.188-.288c-.336-.104-.584-.244-.744-.42-.16-.184-.24-.376-.24-.576 0-.184.064-.336.192-.456a.751.751 0 0 1 .516-.18c.216 0 .436.08.66.24.224.152.444.34.66.564.216.224.412.436.588.636.272.312.644.608 1.116.888v-.156c0-.24-.012-.456-.036-.648a2.199 2.199 0 0 0-.096-.516l-.216-.648c-.072-.24-.136-.472-.192-.696a2.499 2.499 0 0 1-.084-.552c0-.28.068-.508.204-.684a.66.66 0 0 1 .54-.276c.208 0 .384.088.528.264.144.176.216.408.216.696s-.108.752-.324 1.392A5.632 5.632 0 0 0 4.56 5.04c.168-.112.3-.196.396-.252.096-.064.176-.12.24-.168l.216-.192.336-.336c.56-.616.952-1 1.176-1.152.224-.152.456-.228.696-.228.192 0 .352.06.48.18s.192.272.192.456c0 .2-.08.388-.24.564-.152.168-.404.308-.756.42a6.681 6.681 0 0 1-.552.156c-.192.048-.4.096-.624.144-.44.096-.928.288-1.464.576.256.144.5.264.732.36.24.088.472.156.696.204.44.096.832.196 1.176.3.352.096.612.232.78.408.168.176.252.364.252.564a.681.681 0 0 1-.708.66c-.176 0-.36-.06-.552-.18a3.921 3.921 0 0 1-.564-.432 10.018 10.018 0 0 1-.504-.516c-.144-.168-.26-.3-.348-.396-.176-.2-.528-.468-1.056-.804v.156c0 .504.104 1.076.312 1.716.208.64.312 1.088.312 1.344 0 .28-.072.508-.216.684-.144.184-.32.276-.528.276Z" fill="#F25413"/></svg><svg aria-hidden="true" style="position:absolute;width:20px;height:20px;overflow:hidden" viewBox="0 0 100 100" id="sprite" xmlns="http://www.w3.org/2000/svg"><defs><symbol id="eicon-snowflake" viewBox="0 0 32 32"><path fill="#f25413" style="fill:var(--color1, #f25413)" d="M15.808 30.566c-.717 0-1.293-.294-1.728-.883s-.653-1.318-.653-2.189c0-.973.346-2.432 1.037-4.378.691-1.997 1.037-3.968 1.037-5.914-.845.512-1.587 1.037-2.227 1.574s-1.203 1.075-1.69 1.613a76.85 76.85 0 0 1-1.92 2.074c-.64.64-1.28 1.165-1.92 1.574s-1.293.614-1.958.614a2.216 2.216 0 0 1-1.574-.614c-.435-.435-.653-.934-.653-1.498 0-.64.269-1.242.806-1.805.538-.589 1.37-1.037 2.496-1.344a86.17 86.17 0 0 1 1.766-.461c.64-.179 1.318-.333 2.035-.461 1.382-.282 2.893-.883 4.531-1.805-1.638-.922-3.2-1.536-4.685-1.843a63.98 63.98 0 0 1-3.802-.922c-1.075-.333-1.869-.781-2.381-1.344-.512-.589-.768-1.203-.768-1.843 0-.589.205-1.075.614-1.459.435-.384.986-.576 1.651-.576.691 0 1.395.256 2.112.768.717.486 1.421 1.088 2.112 1.805s1.318 1.395 1.882 2.035c.87.998 2.061 1.946 3.571 2.842v-.499c0-.768-.038-1.459-.115-2.074-.051-.64-.154-1.19-.307-1.651l-.691-2.074c-.23-.768-.435-1.51-.614-2.227-.179-.742-.269-1.331-.269-1.766 0-.896.218-1.626.653-2.189.461-.589 1.037-.883 1.728-.883.666 0 1.229.282 1.69.845s.691 1.306.691 2.227c0 .922-.346 2.406-1.037 4.454-.691 2.022-1.037 3.968-1.037 5.837.538-.358.96-.627 1.267-.806.307-.205.563-.384.768-.538.205-.179.435-.384.691-.614l1.075-1.075c1.792-1.971 3.046-3.2 3.763-3.686s1.459-.73 2.227-.73c.614 0 1.126.192 1.536.576s.614.87.614 1.459c0 .64-.256 1.242-.768 1.805-.486.538-1.293.986-2.419 1.344a21.26 21.26 0 0 1-1.766.499c-.614.154-1.28.307-1.997.461-1.408.307-2.97.922-4.685 1.843.819.461 1.6.845 2.342 1.152.768.282 1.51.499 2.227.653 1.408.307 2.662.627 3.763.96 1.126.307 1.958.742 2.496 1.306s.806 1.165.806 1.805c0 .563-.218 1.062-.653 1.498-.41.41-.947.614-1.613.614-.563 0-1.152-.192-1.766-.576s-1.216-.845-1.805-1.382a32.395 32.395 0 0 1-1.613-1.651c-.461-.538-.832-.96-1.114-1.267-.563-.64-1.69-1.498-3.379-2.573v.499c0 1.613.333 3.443.998 5.491s.998 3.482.998 4.301c0 .896-.23 1.626-.691 2.189-.461.589-1.024.883-1.69.883z"/></symbol><symbol id="eicon-arrow-right-down" viewBox="0 0 32 32"><path fill="none" stroke="#1f4dd6" style="stroke:var(--color2, #1f4dd6)" stroke-linejoin="round" stroke-linecap="round" stroke-width=".533" d="m8 8 16 16m0 0V12m0 12H12"/></symbol><symbol id="eicon-arrow-down" viewBox="0 0 32 32"><path fill="none" stroke="#fff" style="stroke:var(--color3, #fff)" stroke-width=".444" d="M31.778 16c0 8.714-7.064 15.778-15.778 15.778S.222 24.714.222 16 7.286.222 16 .222 31.778 7.286 31.778 16z"/><path fill="none" stroke="#fff" style="stroke:var(--color3, #fff)" stroke-linejoin="round" stroke-linecap="round" stroke-width=".667" d="M16 8.889v14.222m0 0 5.333-5.333M16 23.111l-5.333-5.333"/></symbol><symbol id="eicon-arrow-right" viewBox="0 0 32 32"><path fill="none" stroke="#1f4dd6" style="stroke:var(--color2, #1f4dd6)" stroke-width="1.391" d="M31.304 16c0 8.452-6.852 15.304-15.304 15.304S.696 24.452.696 16 7.548.696 16 .696 31.304 7.548 31.304 16z"/><path fill="#1f4dd6" style="fill:var(--color2, #1f4dd6)" d="M9.277 15.768v1.855h11.13l-5.101 5.102 1.317 1.317 7.346-7.346-7.346-7.346-1.317 1.317 5.101 5.101H9.277z"/></symbol></defs></svg></svg>