<svg aria-hidden="true" style="position: absolute; width: 20px; height: 20px; overflow: hidden;" version="1.1" xmlns="http://www.w3.org/2000/svg" xmlns:xlink="http://www.w3.org/1999/xlink">
<defs>
<symbol id="icon-snowflake" viewBox="0 0 32 32">
<path fill="#f25413" style="fill: var(--color1, #f25413)" d="M15.808 30.566c-0.717 0-1.293-0.294-1.728-0.883s-0.653-1.318-0.653-2.189c0-0.973 0.346-2.432 1.037-4.378 0.691-1.997 1.037-3.968 1.037-5.914-0.845 0.512-1.587 1.037-2.227 1.574s-1.203 1.075-1.69 1.613c-0.64 0.717-1.28 1.408-1.92 2.074-0.64 0.64-1.28 1.165-1.92 1.574s-1.293 0.614-1.958 0.614c-0.614 0-1.139-0.205-1.574-0.614-0.435-0.435-0.653-0.934-0.653-1.498 0-0.64 0.269-1.242 0.806-1.805 0.538-0.589 1.37-1.037 2.496-1.344 0.563-0.154 1.152-0.307 1.766-0.461 0.64-0.179 1.318-0.333 2.035-0.461 1.382-0.282 2.893-0.883 4.531-1.805-1.638-0.922-3.2-1.536-4.685-1.843-1.434-0.307-2.701-0.614-3.802-0.922-1.075-0.333-1.869-0.781-2.381-1.344-0.512-0.589-0.768-1.203-0.768-1.843 0-0.589 0.205-1.075 0.614-1.459 0.435-0.384 0.986-0.576 1.651-0.576 0.691 0 1.395 0.256 2.112 0.768 0.717 0.486 1.421 1.088 2.112 1.805s1.318 1.395 1.882 2.035c0.87 0.998 2.061 1.946 3.571 2.842v-0.499c0-0.768-0.038-1.459-0.115-2.074-0.051-0.64-0.154-1.19-0.307-1.651-0.205-0.614-0.435-1.306-0.691-2.074-0.23-0.768-0.435-1.51-0.614-2.227-0.179-0.742-0.269-1.331-0.269-1.766 0-0.896 0.218-1.626 0.653-2.189 0.461-0.589 1.037-0.883 1.728-0.883 0.666 0 1.229 0.282 1.69 0.845s0.691 1.306 0.691 2.227c0 0.922-0.346 2.406-1.037 4.454-0.691 2.022-1.037 3.968-1.037 5.837 0.538-0.358 0.96-0.627 1.267-0.806 0.307-0.205 0.563-0.384 0.768-0.538 0.205-0.179 0.435-0.384 0.691-0.614 0.256-0.256 0.614-0.614 1.075-1.075 1.792-1.971 3.046-3.2 3.763-3.686s1.459-0.73 2.227-0.73c0.614 0 1.126 0.192 1.536 0.576s0.614 0.87 0.614 1.459c0 0.64-0.256 1.242-0.768 1.805-0.486 0.538-1.293 0.986-2.419 1.344-0.538 0.179-1.126 0.346-1.766 0.499-0.614 0.154-1.28 0.307-1.997 0.461-1.408 0.307-2.97 0.922-4.685 1.843 0.819 0.461 1.6 0.845 2.342 1.152 0.768 0.282 1.51 0.499 2.227 0.653 1.408 0.307 2.662 0.627 3.763 0.96 1.126 0.307 1.958 0.742 2.496 1.306s0.806 1.165 0.806 1.805c0 0.563-0.218 1.062-0.653 1.498-0.41 0.41-0.947 0.614-1.613 0.614-0.563 0-1.152-0.192-1.766-0.576s-1.216-0.845-1.805-1.382c-0.589-0.563-1.126-1.114-1.613-1.651-0.461-0.538-0.832-0.96-1.114-1.267-0.563-0.64-1.69-1.498-3.379-2.573v0.499c0 1.613 0.333 3.443 0.998 5.491s0.998 3.482 0.998 4.301c0 0.896-0.23 1.626-0.691 2.189-0.461 0.589-1.024 0.883-1.69 0.883z"></path>
</symbol>
<symbol id="icon-arrow-right-down" viewBox="0 0 32 32">
<path fill="none" stroke="#1f4dd6" style="stroke: var(--color2, #1f4dd6)" stroke-linejoin="round" stroke-linecap="round" stroke-miterlimit="4" stroke-width="0.5333" d="M8 8l16 16M24 24v-12M24 24h-12"></path>
</symbol>
<symbol id="icon-arrow-down" viewBox="0 0 32 32">
<path fill="none" stroke="#fff" style="stroke: var(--color3, #fff)" stroke-linejoin="miter" stroke-linecap="butt" stroke-miterlimit="4" stroke-width="0.4444" d="M31.778 16c0 8.714-7.064 15.778-15.778 15.778s-15.778-7.064-15.778-15.778c0-8.714 7.064-15.778 15.778-15.778s15.778 7.064 15.778 15.778z"></path>
<path fill="none" stroke="#fff" style="stroke: var(--color3, #fff)" stroke-linejoin="round" stroke-linecap="round" stroke-miterlimit="4" stroke-width="0.6667" d="M16 8.889v14.222M16 23.111l5.333-5.333M16 23.111l-5.333-5.333"></path>
</symbol>
<symbol id="icon-arrow-right" viewBox="0 0 32 32">
<path fill="none" stroke="#1f4dd6" style="stroke: var(--color2, #1f4dd6)" stroke-linejoin="miter" stroke-linecap="butt" stroke-miterlimit="4" stroke-width="1.3913" d="M31.304 16c0 8.452-6.852 15.304-15.304 15.304s-15.304-6.852-15.304-15.304c0-8.452 6.852-15.304 15.304-15.304s15.304 6.852 15.304 15.304z"></path>
<path fill="#1f4dd6" style="fill: var(--color2, #1f4dd6)" d="M9.277 15.768v1.855h11.13l-5.101 5.102 1.317 1.317 7.346-7.346-7.346-7.346-1.317 1.317 5.101 5.101h-11.13z"></path>
</symbol>
</defs>
</svg>
